<mxfile host="app.diagrams.net" modified="2022-11-21T12:06:29.520Z" agent="5.0 (Windows NT 10.0; Win64; x64) AppleWebKit/537.36 (KHTML, like Gecko) Chrome/107.0.0.0 Safari/537.36 Edg/107.0.1418.52" etag="TWOdgJTyudkHU3RuiUdh" version="20.5.3" type="github">
  <diagram id="LfbopURMoSi3LFcbgzoB" name="Page-1">
    <mxGraphModel dx="813" dy="431" grid="1" gridSize="10" guides="1" tooltips="1" connect="1" arrows="1" fold="1" page="1" pageScale="1" pageWidth="850" pageHeight="1100" math="0" shadow="0">
      <root>
        <mxCell id="0" />
        <mxCell id="1" parent="0" />
        <mxCell id="88I9lt0ZP32555L0P9AO-1" value="Користувач" style="shape=umlActor;verticalLabelPosition=bottom;verticalAlign=top;html=1;outlineConnect=0;" vertex="1" parent="1">
          <mxGeometry x="200" y="290" width="30" height="60" as="geometry" />
        </mxCell>
        <mxCell id="88I9lt0ZP32555L0P9AO-3" value="&lt;font style=&quot;font-size: 10px;&quot;&gt;Авторизуватися&lt;/font&gt;" style="ellipse;whiteSpace=wrap;html=1;" vertex="1" parent="1">
          <mxGeometry x="290" y="230" width="100" height="40" as="geometry" />
        </mxCell>
        <mxCell id="88I9lt0ZP32555L0P9AO-4" value="" style="endArrow=classic;html=1;rounded=0;entryX=0.5;entryY=0;entryDx=0;entryDy=0;dashed=1;" edge="1" parent="1" source="88I9lt0ZP32555L0P9AO-6" target="88I9lt0ZP32555L0P9AO-3">
          <mxGeometry width="50" height="50" relative="1" as="geometry">
            <mxPoint x="370" y="170" as="sourcePoint" />
            <mxPoint x="370" y="250" as="targetPoint" />
          </mxGeometry>
        </mxCell>
        <mxCell id="88I9lt0ZP32555L0P9AO-6" value="&lt;font style=&quot;font-size: 10px;&quot;&gt;Використати електронну почту&lt;/font&gt;" style="ellipse;whiteSpace=wrap;html=1;" vertex="1" parent="1">
          <mxGeometry x="285" y="120" width="110" height="40" as="geometry" />
        </mxCell>
        <mxCell id="88I9lt0ZP32555L0P9AO-7" value="" style="endArrow=classic;html=1;rounded=0;entryX=0.947;entryY=0.246;entryDx=0;entryDy=0;dashed=1;entryPerimeter=0;exitX=0.5;exitY=1;exitDx=0;exitDy=0;" edge="1" parent="1" source="88I9lt0ZP32555L0P9AO-8" target="88I9lt0ZP32555L0P9AO-3">
          <mxGeometry width="50" height="50" relative="1" as="geometry">
            <mxPoint x="470" y="190" as="sourcePoint" />
            <mxPoint x="350" y="240" as="targetPoint" />
          </mxGeometry>
        </mxCell>
        <mxCell id="88I9lt0ZP32555L0P9AO-8" value="&lt;font style=&quot;font-size: 10px;&quot;&gt;Використати номер телефону&lt;/font&gt;" style="ellipse;whiteSpace=wrap;html=1;" vertex="1" parent="1">
          <mxGeometry x="410" y="170" width="110" height="40" as="geometry" />
        </mxCell>
        <mxCell id="88I9lt0ZP32555L0P9AO-10" value="&amp;lt;&amp;lt;Extend&amp;gt;&amp;gt;" style="text;html=1;align=center;verticalAlign=middle;resizable=0;points=[];autosize=1;strokeColor=none;fillColor=none;fontSize=10;rotation=0;" vertex="1" parent="1">
          <mxGeometry x="270" y="180" width="80" height="30" as="geometry" />
        </mxCell>
        <mxCell id="88I9lt0ZP32555L0P9AO-11" value="&amp;lt;&amp;lt;Extend&amp;gt;&amp;gt;" style="text;html=1;align=center;verticalAlign=middle;resizable=0;points=[];autosize=1;strokeColor=none;fillColor=none;fontSize=10;rotation=-15;" vertex="1" parent="1">
          <mxGeometry x="360" y="200" width="80" height="30" as="geometry" />
        </mxCell>
        <mxCell id="88I9lt0ZP32555L0P9AO-13" value="&lt;font style=&quot;font-size: 10px;&quot;&gt;Здійснити пошук&lt;/font&gt;" style="ellipse;whiteSpace=wrap;html=1;" vertex="1" parent="1">
          <mxGeometry x="300" y="290" width="100" height="40" as="geometry" />
        </mxCell>
        <mxCell id="88I9lt0ZP32555L0P9AO-14" value="" style="endArrow=classic;html=1;rounded=0;entryX=1;entryY=0.5;entryDx=0;entryDy=0;dashed=1;exitX=0;exitY=0.5;exitDx=0;exitDy=0;" edge="1" parent="1" source="88I9lt0ZP32555L0P9AO-15" target="88I9lt0ZP32555L0P9AO-13">
          <mxGeometry width="50" height="50" relative="1" as="geometry">
            <mxPoint x="480" y="300" as="sourcePoint" />
            <mxPoint x="350" y="240" as="targetPoint" />
          </mxGeometry>
        </mxCell>
        <mxCell id="88I9lt0ZP32555L0P9AO-15" value="&lt;font style=&quot;font-size: 10px;&quot;&gt;Використати фільтри пошуку&lt;/font&gt;" style="ellipse;whiteSpace=wrap;html=1;" vertex="1" parent="1">
          <mxGeometry x="470" y="270" width="120" height="40" as="geometry" />
        </mxCell>
        <mxCell id="88I9lt0ZP32555L0P9AO-16" value="&amp;lt;&amp;lt;Extend&amp;gt;&amp;gt;" style="text;html=1;align=center;verticalAlign=middle;resizable=0;points=[];autosize=1;strokeColor=none;fillColor=none;fontSize=10;rotation=-15;" vertex="1" parent="1">
          <mxGeometry x="395" y="275" width="80" height="30" as="geometry" />
        </mxCell>
        <mxCell id="88I9lt0ZP32555L0P9AO-17" value="&lt;font style=&quot;font-size: 10px;&quot;&gt;Зв&#39;язатися з продавцем&lt;/font&gt;" style="ellipse;whiteSpace=wrap;html=1;" vertex="1" parent="1">
          <mxGeometry x="300" y="350" width="100" height="40" as="geometry" />
        </mxCell>
        <mxCell id="88I9lt0ZP32555L0P9AO-19" value="" style="endArrow=classic;html=1;rounded=0;entryX=1;entryY=0.5;entryDx=0;entryDy=0;dashed=1;exitX=0;exitY=0.5;exitDx=0;exitDy=0;" edge="1" parent="1" source="88I9lt0ZP32555L0P9AO-20" target="88I9lt0ZP32555L0P9AO-17">
          <mxGeometry width="50" height="50" relative="1" as="geometry">
            <mxPoint x="460" y="370" as="sourcePoint" />
            <mxPoint x="394.70000000000005" y="249.84000000000003" as="targetPoint" />
          </mxGeometry>
        </mxCell>
        <mxCell id="88I9lt0ZP32555L0P9AO-20" value="&lt;font style=&quot;font-size: 10px;&quot;&gt;Використати месенджер&lt;/font&gt;" style="ellipse;whiteSpace=wrap;html=1;" vertex="1" parent="1">
          <mxGeometry x="475" y="330" width="120" height="40" as="geometry" />
        </mxCell>
        <mxCell id="88I9lt0ZP32555L0P9AO-21" value="&lt;span style=&quot;font-size: 10px;&quot;&gt;Зателефонувати&lt;/span&gt;" style="ellipse;whiteSpace=wrap;html=1;" vertex="1" parent="1">
          <mxGeometry x="475" y="390" width="120" height="40" as="geometry" />
        </mxCell>
        <mxCell id="88I9lt0ZP32555L0P9AO-22" value="" style="endArrow=classic;html=1;rounded=0;entryX=0.967;entryY=0.646;entryDx=0;entryDy=0;dashed=1;exitX=0;exitY=0.5;exitDx=0;exitDy=0;entryPerimeter=0;" edge="1" parent="1" source="88I9lt0ZP32555L0P9AO-21" target="88I9lt0ZP32555L0P9AO-17">
          <mxGeometry width="50" height="50" relative="1" as="geometry">
            <mxPoint x="485" y="360" as="sourcePoint" />
            <mxPoint x="410" y="380" as="targetPoint" />
          </mxGeometry>
        </mxCell>
        <mxCell id="88I9lt0ZP32555L0P9AO-23" value="&amp;lt;&amp;lt;Extend&amp;gt;&amp;gt;" style="text;html=1;align=center;verticalAlign=middle;resizable=0;points=[];autosize=1;strokeColor=none;fillColor=none;fontSize=10;rotation=-15;" vertex="1" parent="1">
          <mxGeometry x="400" y="335" width="80" height="30" as="geometry" />
        </mxCell>
        <mxCell id="88I9lt0ZP32555L0P9AO-24" value="&amp;lt;&amp;lt;Extend&amp;gt;&amp;gt;" style="text;html=1;align=center;verticalAlign=middle;resizable=0;points=[];autosize=1;strokeColor=none;fillColor=none;fontSize=10;rotation=30;" vertex="1" parent="1">
          <mxGeometry x="410" y="370" width="80" height="30" as="geometry" />
        </mxCell>
        <mxCell id="88I9lt0ZP32555L0P9AO-28" value="" style="endArrow=none;html=1;rounded=0;fontSize=10;entryX=0;entryY=0.5;entryDx=0;entryDy=0;" edge="1" parent="1" target="88I9lt0ZP32555L0P9AO-3">
          <mxGeometry width="50" height="50" relative="1" as="geometry">
            <mxPoint x="230" y="290" as="sourcePoint" />
            <mxPoint x="310" y="310" as="targetPoint" />
          </mxGeometry>
        </mxCell>
        <mxCell id="88I9lt0ZP32555L0P9AO-29" value="" style="endArrow=none;html=1;rounded=0;fontSize=10;entryX=0;entryY=0.5;entryDx=0;entryDy=0;" edge="1" parent="1" target="88I9lt0ZP32555L0P9AO-13">
          <mxGeometry width="50" height="50" relative="1" as="geometry">
            <mxPoint x="240" y="310" as="sourcePoint" />
            <mxPoint x="300" y="260" as="targetPoint" />
          </mxGeometry>
        </mxCell>
        <mxCell id="88I9lt0ZP32555L0P9AO-30" value="" style="endArrow=none;html=1;rounded=0;fontSize=10;entryX=0;entryY=0.5;entryDx=0;entryDy=0;" edge="1" parent="1" target="88I9lt0ZP32555L0P9AO-17">
          <mxGeometry width="50" height="50" relative="1" as="geometry">
            <mxPoint x="240" y="340" as="sourcePoint" />
            <mxPoint x="310" y="320" as="targetPoint" />
          </mxGeometry>
        </mxCell>
      </root>
    </mxGraphModel>
  </diagram>
</mxfile>
